<svg width="100" height="100" viewBox="0 0 100 100" fill="none" xmlns="http://www.w3.org/2000/svg">
  <!-- California Condor for Grand Canyon -->
  <circle cx="50" cy="50" r="45" fill="#E53E3E"/>
  
  <!-- Body -->
  <ellipse cx="50" cy="60" rx="25" ry="30" fill="#1A202C"/>
  
  <!-- Wings -->
  <path d="M25 50 Q10 40 15 55 Q20 70 30 60" fill="#2D3748"/>
  <path d="M75 50 Q90 40 85 55 Q80 70 70 60" fill="#2D3748"/>
  
  <!-- Head -->
  <circle cx="50" cy="35" r="18" fill="#FED7D7"/>
  
  <!-- Beak -->
  <path d="M50 40 L45 45 L50 48 L55 45 Z" fill="#1A202C"/>
  
  <!-- Eyes -->
  <circle cx="43" cy="33" r="4" fill="#000000"/>
  <circle cx="57" cy="33" r="4" fill="#000000"/>
  <circle cx="44" cy="32" r="1.5" fill="#FFFFFF"/>
  <circle cx="58" cy="32" r="1.5" fill="#FFFFFF"/>
  
  <!-- Wing details -->
  <path d="M20 60 L25 65 L30 60" stroke="#718096" stroke-width="2" fill="none"/>
  <path d="M70 60 L75 65 L80 60" stroke="#718096" stroke-width="2" fill="none"/>
</svg>