<svg width="100" height="100" viewBox="0 0 100 100" fill="none" xmlns="http://www.w3.org/2000/svg">
  <!-- Bison for Yellowstone -->
  <circle cx="50" cy="50" r="45" fill="#48BB78"/>
  
  <!-- Body -->
  <ellipse cx="50" cy="55" rx="35" ry="30" fill="#8B4513"/>
  
  <!-- Head -->
  <ellipse cx="50" cy="45" rx="25" ry="20" fill="#654321"/>
  
  <!-- Horns -->
  <path d="M30 35 Q25 30 28 35" stroke="#2D3748" stroke-width="4" stroke-linecap="round" fill="none"/>
  <path d="M70 35 Q75 30 72 35" stroke="#2D3748" stroke-width="4" stroke-linecap="round" fill="none"/>
  
  <!-- Snout -->
  <ellipse cx="50" cy="50" rx="15" ry="10" fill="#3E2723"/>
  
  <!-- Nostrils -->
  <ellipse cx="45" cy="50" rx="2" ry="3" fill="#000000"/>
  <ellipse cx="55" cy="50" rx="2" ry="3" fill="#000000"/>
  
  <!-- Eyes -->
  <circle cx="38" cy="40" r="3" fill="#000000"/>
  <circle cx="62" cy="40" r="3" fill="#000000"/>
  <circle cx="39" cy="39" r="1" fill="#FFFFFF"/>
  <circle cx="63" cy="39" r="1" fill="#FFFFFF"/>
  
  <!-- Fur texture -->
  <path d="M25 55 Q30 60 35 55" stroke="#A0522D" stroke-width="2" fill="none"/>
  <path d="M65 55 Q70 60 75 55" stroke="#A0522D" stroke-width="2" fill="none"/>
</svg>