<svg width="100" height="100" viewBox="0 0 100 100" fill="none" xmlns="http://www.w3.org/2000/svg">
  <!-- Black Bear Cub for Great Smoky Mountains -->
  <circle cx="50" cy="50" r="45" fill="#9CA3AF"/>
  
  <!-- Mist effect -->
  <ellipse cx="30" cy="70" rx="20" ry="10" fill="#E5E7EB" opacity="0.5"/>
  <ellipse cx="70" cy="75" rx="25" ry="12" fill="#E5E7EB" opacity="0.4"/>
  
  <!-- Ears -->
  <circle cx="30" cy="28" r="10" fill="#374151"/>
  <circle cx="70" cy="28" r="10" fill="#374151"/>
  <circle cx="30" cy="28" r="6" fill="#6B7280"/>
  <circle cx="70" cy="28" r="6" fill="#6B7280"/>
  
  <!-- Face -->
  <ellipse cx="50" cy="50" rx="25" ry="23" fill="#4B5563"/>
  
  <!-- Snout -->
  <ellipse cx="50" cy="58" rx="12" ry="10" fill="#374151"/>
  
  <!-- Nose -->
  <ellipse cx="50" cy="56" rx="4" ry="3" fill="#000000"/>
  
  <!-- Eyes (cute and young) -->
  <ellipse cx="40" cy="45" rx="5" ry="6" fill="#000000"/>
  <ellipse cx="60" cy="45" rx="5" ry="6" fill="#000000"/>
  <circle cx="41" cy="44" r="2" fill="#FFFFFF"/>
  <circle cx="61" cy="44" r="2" fill="#FFFFFF"/>
  
  <!-- Flower accent -->
  <circle cx="65" cy="30" r="3" fill="#F472B6"/>
  <circle cx="65" cy="24" r="2" fill="#FDE68A"/>
  <circle cx="71" cy="30" r="2" fill="#FDE68A"/>
  <circle cx="65" cy="36" r="2" fill="#FDE68A"/>
  <circle cx="59" cy="30" r="2" fill="#FDE68A"/>
</svg>