<svg width="100" height="100" viewBox="0 0 100 100" fill="none" xmlns="http://www.w3.org/2000/svg">
  <!-- Roosevelt Elk for Olympic -->
  <circle cx="50" cy="50" r="45" fill="#34D399"/>
  
  <!-- Forest/moss elements -->
  <ellipse cx="20" cy="70" rx="15" ry="8" fill="#059669" opacity="0.5"/>
  <ellipse cx="80" cy="75" rx="18" ry="10" fill="#047857" opacity="0.4"/>
  
  <!-- Body -->
  <ellipse cx="50" cy="60" rx="28" ry="24" fill="#8B6331"/>
  
  <!-- Head -->
  <ellipse cx="50" cy="40" rx="20" ry="18" fill="#A0522D"/>
  
  <!-- Antlers -->
  <path d="M35 28 L32 20 M35 28 L30 25 M35 28 L38 23" stroke="#5D4E37" stroke-width="3" stroke-linecap="round"/>
  <path d="M65 28 L68 20 M65 28 L70 25 M65 28 L62 23" stroke="#5D4E37" stroke-width="3" stroke-linecap="round"/>
  
  <!-- Snout -->
  <ellipse cx="50" cy="45" rx="12" ry="10" fill="#8B4513"/>
  
  <!-- Nose -->
  <ellipse cx="50" cy="44" rx="4" ry="3" fill="#000000"/>
  
  <!-- Eyes -->
  <ellipse cx="40" cy="37" rx="3" ry="4" fill="#000000"/>
  <ellipse cx="60" cy="37" rx="3" ry="4" fill="#000000"/>
  <circle cx="41" cy="36" r="1" fill="#FFFFFF"/>
  <circle cx="61" cy="36" r="1" fill="#FFFFFF"/>
  
  <!-- Moss on antlers -->
  <circle cx="32" cy="22" r="2" fill="#10B981"/>
  <circle cx="68" cy="22" r="2" fill="#10B981"/>
  
  <!-- Legs -->
  <rect x="38" y="65" width="6" height="15" rx="3" fill="#6B4C28"/>
  <rect x="56" y="65" width="6" height="15" rx="3" fill="#6B4C28"/>
</svg>