<svg width="100" height="100" viewBox="0 0 100 100" fill="none" xmlns="http://www.w3.org/2000/svg">
  <!-- Grizzly Bear for Grand Teton -->
  <circle cx="50" cy="50" r="45" fill="#A78BFA"/>
  
  <!-- Mountain peaks -->
  <path d="M20 65 L35 40 L50 65" fill="#6366F1"/>
  <path d="M50 65 L65 40 L80 65" fill="#7C3AED"/>
  
  <!-- Body -->
  <ellipse cx="50" cy="60" rx="32" ry="28" fill="#8B6331"/>
  
  <!-- Ears -->
  <circle cx="28" cy="28" r="12" fill="#6B4C28"/>
  <circle cx="72" cy="28" r="12" fill="#6B4C28"/>
  <circle cx="28" cy="28" r="7" fill="#A0522D"/>
  <circle cx="72" cy="28" r="7" fill="#A0522D"/>
  
  <!-- Face -->
  <ellipse cx="50" cy="45" rx="28" ry="25" fill="#A0522D"/>
  
  <!-- Snout -->
  <ellipse cx="50" cy="52" rx="15" ry="12" fill="#8B6331"/>
  
  <!-- Nose -->
  <ellipse cx="50" cy="50" rx="5" ry="4" fill="#000000"/>
  
  <!-- Eyes -->
  <circle cx="38" cy="40" r="4" fill="#000000"/>
  <circle cx="62" cy="40" r="4" fill="#000000"/>
  <circle cx="39" cy="39" r="1.5" fill="#FFFFFF"/>
  <circle cx="63" cy="39" r="1.5" fill="#FFFFFF"/>
  
  <!-- Claws -->
  <path d="M25 70 L23 72" stroke="#2D3748" stroke-width="2" stroke-linecap="round"/>
  <path d="M30 72 L28 74" stroke="#2D3748" stroke-width="2" stroke-linecap="round"/>
  <path d="M70 72 L72 74" stroke="#2D3748" stroke-width="2" stroke-linecap="round"/>
  <path d="M75 70 L77 72" stroke="#2D3748" stroke-width="2" stroke-linecap="round"/>
</svg>